<?xml version="1.0" encoding="utf-8"?>
<!-- Generator: Adobe Illustrator 16.0.0, SVG Export Plug-In . SVG Version: 6.00 Build 0)  -->
<!DOCTYPE svg PUBLIC "-//W3C//DTD SVG 1.1//EN" "http://www.w3.org/Graphics/SVG/1.1/DTD/svg11.dtd">
<svg version="1.1" id="Layer_1" xmlns="http://www.w3.org/2000/svg" xmlns:xlink="http://www.w3.org/1999/xlink" x="0px" y="0px"
	 width="24px" height="24px" viewBox="0 0 24 24" enable-background="new 0 0 24 24" xml:space="preserve">
<path d="M23.983,8.165c-0.006-0.029-0.01-0.059-0.019-0.086c-0.004-0.017-0.011-0.033-0.016-0.05
	c-0.009-0.026-0.016-0.05-0.026-0.075c-0.008-0.017-0.016-0.033-0.024-0.05c-0.011-0.023-0.022-0.046-0.035-0.068
	c-0.009-0.016-0.02-0.032-0.03-0.048c-0.014-0.021-0.027-0.042-0.044-0.063c-0.011-0.015-0.022-0.03-0.035-0.044
	c-0.015-0.02-0.032-0.039-0.05-0.057c-0.015-0.014-0.027-0.028-0.042-0.041c-0.019-0.017-0.04-0.033-0.059-0.049
	c-0.016-0.012-0.03-0.025-0.047-0.035c-0.005-0.004-0.01-0.008-0.017-0.013L12.571,0.174c-0.347-0.231-0.797-0.231-1.144,0
	L0.459,7.486c-0.006,0.005-0.01,0.009-0.017,0.013C0.426,7.511,0.411,7.522,0.395,7.534C0.375,7.55,0.356,7.566,0.337,7.583
	C0.323,7.596,0.309,7.61,0.296,7.624C0.278,7.642,0.261,7.66,0.245,7.68C0.232,7.695,0.222,7.708,0.21,7.725
	C0.195,7.745,0.18,7.766,0.166,7.788C0.157,7.804,0.146,7.819,0.137,7.835C0.125,7.858,0.113,7.88,0.102,7.904
	c-0.007,0.017-0.016,0.033-0.023,0.05c-0.01,0.024-0.019,0.05-0.026,0.075C0.047,8.046,0.04,8.062,0.036,8.079
	C0.029,8.107,0.023,8.136,0.018,8.165C0.015,8.18,0.011,8.195,0.009,8.21C0.004,8.254,0,8.299,0,8.344v7.311
	c0,0.046,0.003,0.091,0.009,0.134c0.002,0.016,0.005,0.03,0.008,0.045c0.006,0.029,0.011,0.058,0.019,0.086
	c0.004,0.018,0.011,0.033,0.016,0.05c0.008,0.026,0.017,0.051,0.026,0.076c0.006,0.017,0.015,0.033,0.023,0.05
	c0.011,0.023,0.022,0.046,0.035,0.069c0.01,0.017,0.02,0.033,0.029,0.048c0.014,0.021,0.027,0.042,0.044,0.063
	c0.012,0.017,0.023,0.03,0.035,0.045c0.016,0.02,0.033,0.037,0.051,0.055c0.013,0.014,0.027,0.028,0.041,0.042
	c0.018,0.017,0.038,0.032,0.058,0.048C0.41,16.478,0.426,16.49,0.442,16.5c0.007,0.004,0.011,0.008,0.017,0.013l10.967,7.312
	c0.174,0.115,0.373,0.174,0.573,0.174s0.398-0.057,0.572-0.174l10.968-7.312c0.006-0.004,0.011-0.008,0.017-0.013
	c0.016-0.011,0.031-0.023,0.047-0.035c0.021-0.016,0.04-0.031,0.058-0.048c0.015-0.014,0.028-0.027,0.042-0.042
	c0.019-0.018,0.036-0.036,0.052-0.055c0.013-0.015,0.024-0.028,0.035-0.045c0.015-0.021,0.029-0.042,0.044-0.063
	c0.008-0.017,0.02-0.031,0.029-0.048c0.012-0.022,0.025-0.046,0.035-0.069c0.007-0.016,0.016-0.033,0.023-0.05
	c0.01-0.025,0.019-0.05,0.027-0.076c0.005-0.017,0.013-0.032,0.017-0.05c0.006-0.028,0.012-0.057,0.018-0.086
	c0.002-0.015,0.006-0.029,0.008-0.045C23.996,15.745,24,15.7,24,15.655V8.344c0-0.046-0.003-0.091-0.009-0.134
	C23.989,8.195,23.985,8.18,23.983,8.165L23.983,8.165z M12.001,14.441l-3.647-2.44l3.647-2.439l3.647,2.439L12.001,14.441z
	 M10.971,7.77L6.499,10.76L2.891,8.346l8.08-5.387V7.77z M4.645,12.001l-2.58,1.725v-3.45L4.645,12.001z M6.499,13.242l4.472,2.989
	v4.81l-8.08-5.387L6.499,13.242L6.499,13.242z M13.031,16.231l4.472-2.989l3.609,2.414l-8.081,5.388V16.231L13.031,16.231z
	 M19.358,12.001l2.58-1.726v3.45L19.358,12.001z M17.503,10.76L13.031,7.77v-4.81l8.081,5.387L17.503,10.76z"/>
</svg>
