<?xml version="1.0" encoding="utf-8"?>
<!-- Generator: Adobe Illustrator 18.0.0, SVG Export Plug-In . SVG Version: 6.00 Build 0)  -->
<!DOCTYPE svg PUBLIC "-//W3C//DTD SVG 1.1//EN" "http://www.w3.org/Graphics/SVG/1.1/DTD/svg11.dtd">
<svg version="1.1" id="Layer_1" xmlns="http://www.w3.org/2000/svg" xmlns:xlink="http://www.w3.org/1999/xlink" x="0px" y="0px"
	 viewBox="0 0 78 78" enable-background="new 0 0 78 78" xml:space="preserve">
<g>
	<circle fill="#010101" cx="39" cy="39" r="37.7"/>
	<path fill="#07A651" d="M39,8.3C22.2,8.3,8.5,22,8.5,38.8c0,16.8,13.7,30.5,30.5,30.5s30.5-13.7,30.5-30.5C69.5,22,55.8,8.3,39,8.3
		z M39,64.3c-14.1,0-25.5-11.4-25.5-25.5c0-14.1,11.4-25.5,25.5-25.5c14.1,0,25.5,11.4,25.5,25.5C64.5,52.9,53.1,64.3,39,64.3z"/>
	<path fill="#07A651" d="M46.3,28.3l-2.8,4.1c2.1,1.5,3.4,3.9,3.4,6.5c0,4.3-3.5,7.8-7.8,7.8s-7.8-3.5-7.8-7.8c0-2.6,1.3-5,3.4-6.4
		l-2.8-4.1c-3.5,2.4-5.5,6.3-5.5,10.6c0,7.1,5.8,12.8,12.8,12.8c7.1,0,12.8-5.8,12.8-12.8C51.8,34.6,49.8,30.7,46.3,28.3z"/>
	<rect x="36.5" y="21.8" fill="#07A651" width="5" height="15"/>
</g>
</svg>
